<svg width="304" height="287" viewBox="0 0 304 287" fill="none" xmlns="http://www.w3.org/2000/svg">
<path d="M104.5 87.4998C69.5001 71.5 51.5001 43.9998 51.5001 45.9998C21.9001 108 60 132.21 82.0001 142.5C123.333 161.833 209.6 202.2 224 209C238.4 215.8 245.333 229.5 247 235.5C249.667 234.333 255.6 225.7 258 200.5C260.4 175.3 238.5 149.219 224 142.5C189.083 126.32 139.5 103.5 104.5 87.4998Z" fill="#F1BF7C"/>
<path d="M257.548 27.3887L262.322 103.06L195.672 71.2095L257.548 27.3887Z" fill="#F1BF7C"/>
<path d="M46.4016 258.051L41.9501 182.36L108.464 214.494L46.4016 258.051Z" fill="#F1BF7C"/>
</svg>
